<svg xmlns="http://www.w3.org/2000/svg" id="black" fill="none" viewBox="0 0 99 44">
    <path fill="#1D1D1D"
          d="M71.36 43.89V28.728a1.94 1.94 0 0 1 1.939-1.94h2.152v2.951l-.067 1.207h.067a5.86 5.86 0 0 1 5.432-4.393l.771.067v4.193a8.892 8.892 0 0 0-1-.067 4.846 4.846 0 0 0-4.661 3.588 9.464 9.464 0 0 0-.369 2.783v6.773H71.36ZM0 23.808V1.94A1.939 1.939 0 0 1 1.939 0h2.32v8.249l-.068 1.442h.067A6.573 6.573 0 0 1 10.16 6.3c3.956 0 5.936 2.18 5.936 6.5v11H11.87V13.681c0-2.28-.67-3.487-2.716-3.487a4.86 4.86 0 0 0-4.627 3.554 8.32 8.32 0 0 0-.268 2.213v7.847H0ZM19.823 8.819a8.387 8.387 0 0 1 6.27-2.515 6.925 6.925 0 0 1 5.566 2.314 8.427 8.427 0 0 1 2.013 5.8l-.1 1.643h-11.8a4.878 4.878 0 0 0 5.13 4.527 8.268 8.268 0 0 0 4.322-1.411l.6-.469 1.643 3.051c-.356.35-.763.643-1.207.872a10.787 10.787 0 0 1-5.666 1.576 9.022 9.022 0 0 1-6.673-2.582 8.83 8.83 0 0 1-2.515-6.371 8.808 8.808 0 0 1 2.414-6.438l.003.003Zm9.554 4.322a3.301 3.301 0 0 0-3.388-3.554 3.957 3.957 0 0 0-4.091 3.554h7.479ZM36.925 0h2.285v18.073c0 1.777.537 2.347 1.744 2.347l.636-.033v3.722a8.663 8.663 0 0 1-1.341.1 6.154 6.154 0 0 1-3.487-.872c-1.107-.7-1.777-2.314-1.777-4.627V1.939A1.94 1.94 0 0 1 36.925 0ZM44.843 0h2.285v18.073c0 1.777.537 2.347 1.744 2.347l.636-.033v3.722a8.662 8.662 0 0 1-1.341.1 6.154 6.154 0 0 1-3.487-.872c-1.107-.7-1.777-2.314-1.777-4.627V1.939A1.94 1.94 0 0 1 44.843 0ZM45.197 26.789l-2.921 9.843-2.921-9.843h-4.543l-2.921 9.843-2.921-9.843h-1.969a1.868 1.868 0 0 0-1.789 2.416l4.5 14.685h4.366l3.01-9.839 3.009 9.839h4.366l5.231-17.1-4.497-.001ZM93.783 43.891h5.216l-7.14-10.251 5.409-6.854h-5.244l-4.792 6.036V20.083h-2.32a1.939 1.939 0 0 0-1.939 1.94v21.868h4.259v-4.4l1.829-2.313 4.722 6.713ZM55.019 23.812v-.022a5.234 5.234 0 0 1 5.234-5.208h.372a5.23 5.23 0 0 1 5.207 5.232h4.208a9.448 9.448 0 0 0-9.412-9.437h-.375v.007a9.434 9.434 0 0 0-9.438 9.4v.028h4.204ZM55.02 34.562v.022a5.234 5.234 0 0 0 5.234 5.208h.372a5.232 5.232 0 0 0 5.207-5.233h4.208a9.448 9.448 0 0 1-9.412 9.437h-.376v-.003a9.434 9.434 0 0 1-9.438-9.4v-.026l4.205-.005Z"/>
</svg>